<?xml version="1.0" encoding="utf-8"?>
<!-- Generator: Adobe Illustrator 12.0.0, SVG Export Plug-In . SVG Version: 6.00 Build 51448)  -->
<!DOCTYPE svg PUBLIC "-//W3C//DTD SVG 1.1//EN" "http://www.w3.org/Graphics/SVG/1.1/DTD/svg11.dtd" [
	<!ENTITY ns_svg "http://www.w3.org/2000/svg">
	<!ENTITY ns_xlink "http://www.w3.org/1999/xlink">
]>
<svg  version="1.1" id="Layer_1" xmlns="&ns_svg;" xmlns:xlink="&ns_xlink;" width="149.79" height="100" viewBox="0 0 149.79 100"
	 overflow="visible" enable-background="new 0 0 149.79 100" xml:space="preserve">
<path fill="#FFFFFF" d="M51.022,31.886c2.077,1.368,4.816,1.168,4.816,1.168s3.129,0.597,8.403-2.991
	c5.274-3.588,10.653-3.338,10.653-3.338s5.379-0.25,10.653,3.338c5.272,3.588,8.402,2.991,8.402,2.991s2.739,0.2,4.816-1.168
	c2.074-1.365,8.9-5.584,15.438-5.584c6.541,0,11.114,1.829,18.146,5.344v-6.892c0,0-8.72-5.344-18.146-5.344
	c-9.42,0-13.781,6.749-20.254,6.749c0,0-3.13,0.6-8.402-2.988c-5.274-3.584-10.653-3.341-10.653-3.341s-5.379-0.243-10.653,3.341
	c-5.274,3.588-8.403,2.988-8.403,2.988c-6.475,0-10.833-6.749-20.257-6.749S17.44,24.754,17.44,24.754v6.892
	c7.03-3.516,11.604-5.344,18.141-5.344C42.119,26.302,48.947,30.521,51.022,31.886z M51.022,22.323
	c2.077,1.368,4.816,1.165,4.816,1.165s3.129,0.6,8.403-2.988c5.274-3.584,10.653-3.341,10.653-3.341s5.379-0.243,10.653,3.341
	c5.272,3.588,8.402,2.988,8.402,2.988s2.739,0.203,4.816-1.165c2.074-1.365,8.9-5.584,15.438-5.584
	c6.541,0,11.114,1.829,18.146,5.344v-6.892c0,0-8.72-5.344-18.146-5.344c-9.42,0-13.781,6.75-20.254,6.75
	c0,0-3.13,0.597-8.402-2.988c-5.274-3.588-10.653-3.341-10.653-3.341s-5.379-0.247-10.653,3.341
	c-5.274,3.585-8.403,2.988-8.403,2.988c-6.475,0-10.833-6.75-20.257-6.75S17.44,15.191,17.44,15.191v6.892
	c7.03-3.515,11.604-5.344,18.141-5.344C42.119,16.739,48.947,20.958,51.022,22.323z M138.818,0H10.969C4.921,0,0,4.921,0,10.972
	v78.059C0,95.082,4.921,100,10.969,100h127.849c6.052,0,10.972-4.918,10.972-10.969v-78.06C149.79,4.921,144.87,0,138.818,0z
	 M144.727,89.031c0,3.257-2.65,5.906-5.909,5.906H10.969c-3.254,0-5.906-2.649-5.906-5.906v-78.06c0-3.257,2.652-5.909,5.906-5.909
	h127.849c3.259,0,5.909,2.651,5.909,5.909V89.031L144.727,89.031z M62.138,37.555L47.225,54.07v33.271h55.34V54.07L87.652,37.555
	H62.138z M94.271,64.357c0,0.832-0.069,1.641-0.174,2.442h0.017l-2.643,11.667H58.319L55.774,66.8h0.015
	c-0.107-0.803-0.177-1.61-0.177-2.442c0-10.512,8.653-19.033,19.329-19.033C85.618,45.324,94.271,53.848,94.271,64.357z
	 M27.797,50.161h-2.533v5.694H14.539v12.871h2.53v-1.479h8.196v11.181h2.533V67.247h7.312v1.479h2.533V55.855h-9.844v-5.694H27.797z
	 M25.265,64.715h-8.196v-6.326h8.196V64.715z M35.109,58.389v6.326h-7.312v-6.326H35.109z M124.995,56.62
	c2.438,0,4.592,1.433,5.877,3.614h4.729c-1.634-4.993-5.761-8.547-10.606-8.547c-6.279,0-11.371,5.953-11.371,13.291
	c0,7.342,5.092,13.293,11.371,13.293c4.846,0,8.974-3.551,10.606-8.547h-4.729c-1.285,2.182-3.438,3.613-5.877,3.613
	c-3.949,0-7.151-3.744-7.151-8.359C117.842,60.363,121.045,56.62,124.995,56.62z"/>
</svg>
