<?xml version="1.0" encoding="utf-8"?>
<!-- Generator: Adobe Illustrator 12.0.0, SVG Export Plug-In . SVG Version: 6.00 Build 51448)  -->
<!DOCTYPE svg PUBLIC "-//W3C//DTD SVG 1.1//EN" "http://www.w3.org/Graphics/SVG/1.1/DTD/svg11.dtd" [
	<!ENTITY ns_svg "http://www.w3.org/2000/svg">
	<!ENTITY ns_xlink "http://www.w3.org/1999/xlink">
]>
<svg  version="1.1" id="Layer_1" xmlns="&ns_svg;" xmlns:xlink="&ns_xlink;" width="149.79" height="100" viewBox="0 0 149.79 100"
	 overflow="visible" enable-background="new 0 0 149.79 100" xml:space="preserve">
<path fill="#FFFFFF" d="M62.138,37.552L47.225,54.064v33.276h55.337V54.064l-14.91-16.514H62.138V37.552z M94.271,64.357
	c0,0.826-0.069,1.641-0.174,2.439h0.017l-2.643,11.667H58.319l-2.545-11.667h0.012c-0.104-0.8-0.174-1.613-0.174-2.439
	c0-10.514,8.653-19.037,19.329-19.037C85.618,45.321,94.271,53.844,94.271,64.357z M138.818,0H10.969C4.921,0,0,4.918,0,10.969
	v78.06C0,95.079,4.921,100,10.969,100h127.849c6.05,0,10.972-4.921,10.972-10.973V10.968C149.79,4.918,144.868,0,138.818,0z
	 M144.724,89.027c0,3.258-2.647,5.906-5.906,5.906H10.969c-3.257,0-5.909-2.648-5.909-5.906V10.968c0-3.26,2.651-5.906,5.909-5.906
	h127.849c3.259,0,5.906,2.646,5.906,5.906V89.027z M51.022,22.32c2.074,1.365,4.813,1.165,4.813,1.165s3.13,0.597,8.403-2.988
	c5.274-3.584,10.656-3.338,10.656-3.338s5.379-0.246,10.653,3.338c5.272,3.585,8.402,2.988,8.402,2.988s2.736,0.2,4.813-1.165
	c2.077-1.365,8.899-5.584,15.438-5.584c6.541,0,11.116,1.829,18.146,5.344v-6.892c0,0-8.723-5.347-18.146-5.347
	c-9.422,0-13.783,6.752-20.252,6.752c0,0-3.13,0.6-8.402-2.988c-5.274-3.588-10.653-3.341-10.653-3.341s-5.382-0.247-10.656,3.341
	c-5.273,3.588-8.403,2.988-8.403,2.988c-6.472,0-10.83-6.752-20.254-6.752s-18.144,5.347-18.144,5.347v6.892
	c7.033-3.515,11.606-5.344,18.144-5.344S48.944,20.955,51.022,22.32z M132.35,24.751c0,0-8.723-5.344-18.146-5.344
	c-9.422,0-13.783,6.75-20.252,6.75c0,0-3.13,0.597-8.402-2.988c-5.274-3.588-10.653-3.342-10.653-3.342s-5.382-0.246-10.656,3.342
	c-5.273,3.584-8.403,2.988-8.403,2.988c-6.472,0-10.83-6.75-20.254-6.75s-18.144,5.344-18.144,5.344v6.892
	c7.033-3.516,11.606-5.344,18.144-5.344s13.363,4.22,15.441,5.584c2.074,1.368,4.813,1.165,4.813,1.165s3.13,0.6,8.403-2.988
	c5.274-3.585,10.656-3.338,10.656-3.338s5.379-0.247,10.653,3.338c5.272,3.588,8.402,2.988,8.402,2.988s2.736,0.203,4.813-1.165
	c2.078-1.365,8.899-5.584,15.438-5.584c6.541,0,11.116,1.829,18.146,5.344V24.751z M115.049,77.918h19.125v-4.221h-14.905v-6.609
	h13.22v-4.22h-13.22v-6.61h14.905v-4.219h-19.125V77.918z M36.216,68.633V57.49h-8.859v-1.797h11.25v-2.53h-11.25v-2.814h-2.533
	v2.814H13.29v2.53h11.534v1.797h-8.862v11.143h5.628c-3.657,3.657-9.146,6.051-9.146,6.051l2.11,2.109
	c5.274-2.252,10.27-6.964,10.27-6.964v8.403h2.533v-8.403c0,0,4.99,4.712,10.265,6.964l2.109-2.109c0,0-5.483-2.394-9.14-6.051
	H36.216z M24.824,66.104h-6.329v-1.76h6.329V66.104z M24.824,61.813h-6.329V60.02h6.329V61.813z M27.357,60.02h6.329v1.795h-6.329
	V60.02z M27.357,64.344h6.329v1.76h-6.329V64.344z"/>
</svg>
