<?xml version="1.0" encoding="utf-8"?>
<!-- Generator: Adobe Illustrator 12.0.0, SVG Export Plug-In . SVG Version: 6.00 Build 51448)  -->
<!DOCTYPE svg PUBLIC "-//W3C//DTD SVG 1.1//EN" "http://www.w3.org/Graphics/SVG/1.1/DTD/svg11.dtd" [
	<!ENTITY ns_svg "http://www.w3.org/2000/svg">
	<!ENTITY ns_xlink "http://www.w3.org/1999/xlink">
]>
<svg  version="1.1" id="Layer_1" xmlns="&ns_svg;" xmlns:xlink="&ns_xlink;" width="149.791" height="100"
	 viewBox="0 0 149.791 100" overflow="visible" enable-background="new 0 0 149.791 100" xml:space="preserve">
<path fill="#FFFFFF" d="M62.14,37.555L47.227,54.066v33.274h55.336V54.066l-14.91-16.512L62.14,37.555L62.14,37.555z M94.272,64.357
	c0,0.828-0.071,1.641-0.176,2.442h0.018l-2.643,11.667H58.32L55.774,66.8h0.015c-0.104-0.803-0.177-1.614-0.177-2.442
	c0-10.512,8.654-19.033,19.33-19.033C85.619,45.324,94.272,53.848,94.272,64.357z M138.819,0H10.97C4.921,0,0,4.921,0,10.972v78.059
	C0,95.082,4.921,100,10.97,100h127.849c6.05,0,10.972-4.918,10.972-10.969v-78.06C149.791,4.921,144.869,0,138.819,0z
	 M144.728,89.031c0,3.257-2.649,5.906-5.908,5.906H10.97c-3.257,0-5.908-2.649-5.908-5.906v-78.06c0-3.26,2.65-5.909,5.908-5.909
	h127.849c3.258,0,5.908,2.649,5.908,5.909V89.031L144.728,89.031z M51.023,22.323c2.076,1.365,4.813,1.165,4.813,1.165
	s3.129,0.597,8.403-2.988c5.274-3.584,10.654-3.341,10.654-3.341s5.381-0.243,10.654,3.341c5.274,3.585,8.404,2.988,8.404,2.988
	s2.737,0.2,4.813-1.165c2.076-1.365,8.902-5.584,15.439-5.584c6.538,0,11.111,1.829,18.145,5.344v-6.892
	c0,0-8.72-5.347-18.145-5.347c-9.424,0-13.784,6.752-20.254,6.752c0,0-3.131,0.597-8.404-2.988
	c-5.273-3.588-10.654-3.341-10.654-3.341s-5.38-0.247-10.654,3.341c-5.274,3.585-8.403,2.988-8.403,2.988
	c-6.47,0-10.83-6.752-20.254-6.752c-9.422,0-18.143,5.347-18.143,5.347v6.892c7.03-3.515,11.605-5.344,18.143-5.344
	C42.122,16.739,48.947,20.958,51.023,22.323z M51.023,31.886c2.076,1.368,4.813,1.165,4.813,1.165s3.129,0.6,8.403-2.988
	c5.274-3.588,10.654-3.338,10.654-3.338s5.381-0.25,10.654,3.338c5.274,3.588,8.404,2.988,8.404,2.988s2.737,0.203,4.813-1.165
	c2.076-1.365,8.902-5.584,15.439-5.584c6.538,0,11.111,1.829,18.145,5.344v-6.891c0,0-8.72-5.344-18.145-5.344
	c-9.424,0-13.784,6.75-20.254,6.75c0,0-3.131,0.597-8.404-2.988c-5.273-3.587-10.654-3.341-10.654-3.341s-5.38-0.246-10.654,3.341
	c-5.274,3.585-8.403,2.988-8.403,2.988c-6.47,0-10.83-6.75-20.254-6.75c-9.422,0-18.143,5.344-18.143,5.344v6.891
	c7.03-3.515,11.605-5.344,18.143-5.344C42.122,26.302,48.947,30.521,51.023,31.886z M13.397,54.079h8.359v4.08H14.24v18.88h2.533
	v-2.214h18.143v2.214h2.533v-18.88h-7.675v-4.08h9.011v-2.53H13.397V54.079z M24.289,54.079h2.953v4.08h-2.953V54.079z
	 M18.347,70.57c0,0,5.942-1.547,5.942-9.246v-0.635h2.953v6.047c0,0-0.404,2.533,2.531,2.533h1.936c0,0,1.583-0.053,2.056-1.396
	c0.475-1.348,0.949-3.061,0.949-3.061h-2.478l-0.527,1.924h-1.936v-6.047h5.143v11.604H16.773V60.689h4.983v0.635
	c0,0,0.581,3.99-4.289,7.033L18.347,70.57z M129.995,67.688l-3.271-15.26h-4.219l-3.271,15.26l-3.271-15.26h-4.22l5.381,25.104
	h4.219l3.271-15.26l3.269,15.26h4.222l5.379-25.104h-4.219L129.995,67.688z"/>
</svg>
